<?xml version="1.0" standalone="no"?>
<!DOCTYPE svg PUBLIC "-//W3C//DTD SVG 20010904//EN"
 "http://www.w3.org/TR/2001/REC-SVG-20010904/DTD/svg10.dtd">
<svg version="1.0" xmlns="http://www.w3.org/2000/svg"
 width="736.000000pt" height="757.000000pt" viewBox="0 0 736.000000 757.000000"
 preserveAspectRatio="xMidYMid meet">

<g transform="translate(0.000000,757.000000) scale(0.100000,-0.100000)"
fill="#000000" stroke="none">
<path d="M4645 7438 c-41 -15 -116 -70 -156 -116 -52 -59 -69 -82 -69 -90 0
-4 -10 -20 -23 -36 -23 -28 -24 -28 -58 -14 -115 49 -287 89 -514 119 -122 17
-448 14 -625 -5 -201 -22 -304 -34 -348 -41 -72 -12 -267 -57 -284 -66 -10 -5
-27 -9 -37 -9 -11 0 -22 -4 -26 -9 -3 -5 -20 -13 -37 -17 -18 -3 -39 -10 -48
-14 -105 -53 -164 -78 -174 -74 -7 3 -20 18 -30 35 -10 16 -43 55 -74 86 -190
187 -465 155 -558 -66 -17 -41 -18 -163 -1 -211 22 -65 66 -126 139 -200 l72
-72 -23 -42 c-91 -163 -154 -307 -185 -426 -15 -54 -46 -206 -46 -223 0 -10
-29 -61 -65 -113 -58 -84 -122 -200 -168 -304 -16 -34 -59 -170 -77 -240 -5
-19 -14 -88 -21 -154 -20 -199 10 -438 73 -586 38 -89 119 -222 152 -249 28
-23 18 -39 -46 -73 -72 -39 -111 -83 -88 -99 24 -16 106 -2 175 31 l64 31 58
-44 c65 -49 226 -144 288 -170 22 -9 82 -34 133 -57 98 -42 124 -44 143 -9 13
25 -10 64 -43 74 -55 16 -263 114 -338 159 -238 143 -396 336 -440 536 -6 30
-17 73 -23 95 -7 24 -12 115 -12 230 0 166 3 201 23 280 23 88 87 270 102 290
4 6 22 37 40 70 18 33 61 101 95 150 59 87 62 94 79 195 16 102 29 154 46 195
4 11 20 55 35 98 15 42 31 80 36 83 5 3 9 12 9 20 0 38 163 284 237 359 151
152 332 267 523 330 30 10 64 21 75 25 11 5 40 13 65 19 461 106 1063 126
1395 44 33 -8 78 -19 100 -24 52 -12 99 -29 175 -62 19 -9 47 -20 61 -25 52
-20 196 -127 265 -196 94 -95 162 -179 238 -295 106 -160 166 -291 197 -429 7
-33 23 -61 57 -97 127 -136 195 -232 264 -375 97 -199 145 -479 119 -690 -10
-84 -14 -103 -46 -229 -31 -125 -124 -271 -260 -406 -102 -102 -135 -130 -238
-200 -68 -46 -82 -66 -67 -95 17 -32 57 -30 109 6 20 13 40 24 44 24 5 0 34
-22 64 -49 42 -38 64 -50 95 -53 22 -2 47 1 56 8 14 10 12 16 -15 50 -17 22
-45 52 -62 68 -17 17 -31 36 -31 43 0 7 46 59 103 115 112 113 177 198 231
304 41 81 56 116 67 164 4 19 16 69 26 110 22 95 25 415 4 530 -47 258 -176
509 -366 712 -30 32 -55 65 -55 73 0 22 -56 179 -92 260 -47 104 -168 291
-236 367 l-25 27 49 58 c74 87 109 142 127 202 21 67 21 119 0 194 -21 76 -96
156 -169 181 -53 18 -163 20 -209 4z m157 -98 c51 -15 92 -51 118 -107 27 -57
22 -111 -15 -187 -29 -59 -106 -151 -122 -145 -6 2 -40 32 -76 65 -65 63 -177
144 -197 144 -59 0 47 155 144 211 54 31 89 35 148 19z m-2807 -170 c68 -41
155 -132 155 -164 0 -2 -24 -21 -52 -42 -29 -21 -98 -82 -153 -136 l-99 -98
-62 61 c-56 56 -83 97 -111 168 -21 55 11 155 65 204 54 49 182 52 257 7z"/>
<path d="M5595 6941 c-88 -40 -120 -107 -119 -246 0 -102 11 -150 55 -238 41
-82 157 -216 213 -246 26 -15 39 -13 141 21 215 72 393 235 412 377 8 60 -20
140 -64 183 -66 64 -186 71 -281 17 -18 -10 -35 -19 -37 -19 -3 0 -17 19 -32
43 -33 50 -77 91 -120 112 -42 20 -119 19 -168 -4z m162 -108 c28 -21 83 -115
83 -143 0 -15 31 -40 50 -40 10 0 34 14 52 31 110 103 242 86 255 -33 5 -38 1
-55 -20 -91 -42 -72 -126 -140 -241 -197 -132 -64 -156 -66 -204 -13 -64 69
-83 96 -119 170 -76 158 -58 315 40 341 41 11 64 5 104 -25z"/>
<path d="M4625 6146 c-89 -41 -157 -128 -159 -201 -1 -61 20 -77 97 -71 32 2
63 9 70 14 16 13 130 57 187 73 48 13 90 49 90 77 0 88 -56 132 -166 132 -51
0 -82 -6 -119 -24z"/>
<path d="M2047 6019 c-86 -20 -117 -50 -117 -113 0 -53 31 -78 122 -97 29 -7
92 -27 140 -45 137 -53 199 -43 200 33 1 95 -91 191 -210 219 -64 15 -81 16
-135 3z"/>
<path d="M3960 5674 c-19 -8 -42 -17 -50 -20 -9 -3 -26 -21 -39 -39 -34 -51
-23 -101 27 -122 50 -21 106 -11 151 25 69 56 65 126 -10 156 -22 9 -40 16
-42 15 -1 0 -18 -7 -37 -15z"/>
<path d="M3058 5615 c-15 -9 -31 -30 -38 -50 -15 -46 7 -85 65 -114 59 -29
119 -28 150 4 46 45 21 116 -55 155 -46 23 -85 25 -122 5z"/>
<path d="M3616 4854 c-12 -12 -16 -37 -16 -102 0 -171 -36 -220 -193 -271 -53
-17 -106 -31 -116 -31 -21 0 -34 -24 -26 -49 6 -19 50 -41 81 -41 12 0 26 -6
32 -13 16 -19 36 -475 22 -492 -6 -7 -39 -16 -73 -20 -383 -40 -626 -131 -693
-258 -22 -43 -29 -161 -15 -287 6 -57 8 -107 3 -112 -4 -4 -32 13 -62 37 -73
59 -130 59 -130 0 0 -22 122 -128 270 -235 65 -47 165 -125 180 -140 5 -5 98
-66 143 -94 35 -21 34 -30 -5 -41 -40 -12 -59 -55 -40 -85 11 -18 9 -20 -16
-20 -54 0 -71 -39 -46 -104 12 -32 -56 -18 -155 33 -53 26 -106 51 -119 55
-31 10 -132 72 -292 179 -129 86 -135 89 -160 76 -35 -20 -36 -49 -3 -81 68
-63 289 -200 543 -336 64 -34 62 -26 80 -272 10 -145 16 -226 40 -620 5 -85
12 -197 16 -248 l7 -92 -44 0 c-24 0 -111 7 -194 15 -82 8 -153 15 -157 15 -4
0 -14 7 -22 16 -14 14 -13 20 8 62 75 146 91 215 90 377 -2 173 -25 265 -99
400 -53 96 -142 195 -175 195 -34 0 -30 -31 14 -103 59 -99 103 -196 128 -286
28 -105 31 -351 3 -459 -10 -40 -22 -75 -26 -78 -5 -3 -39 10 -76 28 -66 32
-70 33 -193 32 -104 -1 -140 -6 -213 -28 -118 -35 -161 -58 -219 -118 l-49
-51 -53 7 c-146 17 -361 131 -488 260 -57 57 -109 131 -158 223 -18 34 -40 65
-48 68 -8 3 -37 -2 -64 -11 -66 -21 -78 -11 -78 68 0 33 4 67 9 76 15 29 22
96 11 112 -8 13 -13 13 -37 -2 -37 -22 -66 -73 -82 -149 -18 -80 -4 -141 41
-183 29 -27 35 -28 93 -23 l63 6 31 -50 c17 -28 31 -53 31 -55 0 -12 92 -123
141 -170 62 -59 198 -150 282 -188 59 -27 141 -54 236 -77 55 -14 60 -19 82
-78 39 -105 147 -159 253 -127 32 10 70 13 116 9 84 -7 106 -2 155 37 31 24
47 30 88 30 74 0 132 31 169 92 18 29 36 47 43 44 7 -2 111 -12 232 -21 154
-11 227 -21 248 -32 17 -9 49 -26 72 -39 256 -140 875 -153 1266 -28 164 53
269 120 308 195 10 21 28 43 39 49 16 9 23 4 50 -35 65 -95 160 -126 255 -85
27 12 53 26 56 32 4 6 36 10 76 9 80 -2 107 6 154 46 20 18 56 34 89 41 41 10
62 21 87 49 30 33 33 41 33 102 0 54 -5 75 -29 116 -16 28 -38 59 -50 69 -25
23 -27 39 -4 57 29 24 123 147 123 161 0 7 11 30 25 50 34 50 90 225 105 327
23 150 -6 361 -79 581 -10 30 -24 88 -31 128 -7 41 -21 108 -32 150 -18 71
-25 101 -48 217 -4 22 -15 68 -24 103 -10 34 -15 66 -12 71 3 5 19 11 37 15
52 10 35 41 -69 129 -105 88 -135 96 -140 39 -2 -23 4 -43 21 -65 13 -18 34
-70 45 -117 29 -114 62 -255 72 -310 5 -25 16 -74 24 -110 9 -36 23 -101 32
-145 8 -44 25 -114 38 -155 13 -41 29 -96 35 -122 6 -27 17 -69 23 -95 17 -67
17 -326 -1 -383 -7 -25 -20 -65 -27 -90 -20 -64 -121 -239 -169 -291 -87 -96
-236 -205 -359 -263 -145 -69 -282 -123 -291 -114 -3 3 0 184 5 404 6 219 12
466 13 548 2 121 5 150 17 157 105 55 217 123 297 180 122 87 263 214 263 238
0 28 -35 54 -62 47 -13 -3 -48 -29 -78 -57 -30 -28 -89 -77 -130 -108 -123
-93 -329 -209 -350 -196 -6 4 -7 22 -4 46 8 49 -7 69 -53 69 -31 0 -33 2 -23
20 17 31 -16 80 -52 80 -53 0 -31 29 77 102 22 15 55 41 73 58 18 16 54 46 80
66 63 48 166 137 230 200 39 39 52 58 52 80 0 63 -57 74 -108 21 -18 -18 -32
-38 -32 -45 0 -18 -39 -36 -45 -20 -2 7 -6 92 -7 190 l-3 176 -31 44 c-22 29
-53 55 -100 79 -81 43 -131 57 -349 98 -48 9 -341 27 -359 23 -4 -2 -15 3 -22
9 -11 9 -14 38 -13 123 1 61 -2 170 -6 241 l-7 130 53 20 c38 15 55 27 57 41
4 29 -16 43 -84 55 -77 14 -131 36 -177 72 -50 39 -54 48 -76 177 -10 61 -24
117 -31 125 -16 19 -45 19 -64 -1z m129 -424 c39 -18 73 -38 77 -44 14 -21 18
-86 38 -596 7 -197 6 -258 -3 -267 -29 -29 -286 -45 -320 -20 -15 11 -19 58
-32 437 -7 233 -12 427 -9 431 2 4 17 10 32 14 15 3 52 23 82 45 30 21 57 38
60 36 3 -1 37 -17 75 -36z m530 -681 c186 -21 339 -62 405 -110 78 -56 52
-153 -60 -223 -61 -39 -316 -116 -380 -116 -8 0 -28 -7 -45 -16 -35 -18 -119
-29 -353 -45 -290 -20 -706 2 -782 41 -19 10 -68 26 -109 35 -84 19 -174 64
-213 106 -61 65 -16 149 110 207 125 58 374 112 514 112 l47 0 5 -42 c3 -24 9
-90 13 -148 l8 -105 40 -20 c83 -41 421 -18 471 33 15 14 16 35 11 153 -3 94
-2 140 6 148 12 12 156 8 312 -10z m460 -456 c-10 -98 -25 -127 -87 -166 -178
-114 -569 -179 -1068 -180 -287 0 -412 10 -569 48 -187 45 -261 100 -278 204
-12 77 -6 88 38 62 53 -31 228 -79 351 -96 330 -46 875 -32 1188 31 141 29
270 70 270 86 0 5 15 15 33 23 17 8 46 23 62 35 17 11 38 20 49 20 17 0 18 -6
11 -67z m-332 -405 c-56 -62 -57 -137 -1 -176 11 -8 18 -25 18 -46 0 -40 30
-81 65 -90 14 -4 25 -11 25 -17 0 -5 18 -27 40 -49 l40 -39 -5 -273 c-12 -642
-25 -889 -48 -934 -54 -104 -280 -199 -557 -235 -387 -49 -798 4 -951 123 -57
44 -53 20 -89 528 -5 74 -12 182 -15 240 -4 58 -10 152 -16 209 -5 58 -9 132
-9 167 l0 62 53 26 c41 20 58 35 71 64 10 22 29 43 46 50 28 13 50 54 50 94 0
11 9 32 19 47 49 68 31 138 -52 197 -27 19 -47 37 -44 40 2 2 60 -3 128 -13
93 -13 193 -17 399 -17 318 -1 561 21 775 68 69 15 88 6 58 -26z m898 -1374
c13 -14 31 -44 40 -67 15 -37 15 -44 2 -64 -21 -32 -38 -29 -70 13 -15 20 -45
44 -65 53 -20 10 -34 22 -30 27 8 12 84 64 93 64 3 0 16 -12 30 -26z m-149
-84 c-2 -16 3 -48 12 -71 15 -38 15 -43 1 -65 -11 -18 -25 -24 -50 -24 -22 0
-35 5 -35 13 0 7 -13 28 -30 47 -35 42 -37 58 -7 70 12 5 40 20 62 34 51 32
52 32 47 -4z m-204 -127 c17 -37 15 -45 -15 -67 -33 -24 -83 -24 -117 0 -37
27 -33 50 12 64 20 7 41 16 47 21 20 19 60 9 73 -18z m-2667 -29 c85 -47 102
-144 30 -174 -37 -15 -50 -7 -75 47 -22 48 -69 87 -95 78 -26 -8 -31 -26 -19
-71 21 -82 21 -91 -2 -114 -14 -14 -31 -20 -52 -18 -26 3 -33 10 -49 52 -30
80 -82 121 -114 89 -18 -17 -18 -22 -4 -79 14 -55 2 -74 -50 -74 -80 1 -129
98 -85 166 45 68 206 120 378 123 78 1 94 -2 137 -25z"/>
<path d="M3348 2200 c-48 -26 -74 -65 -83 -122 -19 -125 123 -210 245 -148 97
50 107 196 18 264 -44 33 -123 35 -180 6z"/>
<path d="M4134 2180 c-76 -16 -143 -106 -130 -173 11 -53 53 -103 105 -126 88
-37 168 -5 211 86 20 42 21 53 11 90 -23 90 -107 142 -197 123z"/>
<path d="M3703 1839 c-18 -12 -33 -25 -33 -30 0 -4 -11 -25 -25 -45 -58 -85
-8 -211 91 -230 55 -10 116 4 152 35 35 31 62 86 62 125 0 49 -48 129 -91 152
-41 21 -118 18 -156 -7z"/>
<path d="M3093 1785 c-78 -72 -86 -168 -19 -242 31 -35 69 -48 133 -45 52 3
83 19 117 59 36 43 45 73 36 121 -9 50 -31 86 -68 109 -15 10 -31 23 -35 30
-5 8 -29 13 -62 13 -51 0 -58 -3 -102 -45z"/>
<path d="M4124 1524 c-56 -36 -76 -73 -77 -143 -2 -71 16 -101 78 -131 112
-54 235 20 235 142 0 91 -50 146 -143 155 -45 4 -58 1 -93 -23z"/>
<path d="M3455 1445 c-5 -2 -21 -6 -35 -9 -29 -6 -72 -42 -88 -73 -7 -12 -12
-47 -12 -77 0 -47 4 -60 30 -89 35 -40 94 -59 155 -50 46 6 58 14 98 61 23 28
27 43 27 93 0 55 -3 63 -37 99 -30 31 -47 40 -83 44 -25 3 -49 4 -55 1z"/>
<path d="M1365 4064 c-98 -35 -165 -85 -165 -123 0 -35 110 -15 228 40 51 25
62 34 62 55 0 42 -53 54 -125 28z"/>
<path d="M5140 3905 c-18 -22 1 -55 73 -121 89 -82 169 -116 184 -78 13 35
-63 125 -152 179 -65 39 -86 43 -105 20z"/>
<path d="M1174 3841 c-110 -39 -126 -48 -122 -74 10 -67 223 -30 273 47 40 61
-21 72 -151 27z"/>
<path d="M1031 3626 c-45 -61 -151 -223 -151 -231 0 -3 -10 -22 -23 -43 -12
-20 -33 -64 -46 -97 -14 -33 -34 -82 -47 -110 -12 -27 -36 -92 -53 -144 -29
-86 -36 -98 -99 -160 -50 -48 -72 -78 -81 -110 -11 -37 -10 -46 2 -58 22 -23
46 -5 222 164 8 7 16 27 20 45 14 68 48 158 117 313 59 133 73 158 163 295 45
69 85 131 89 138 11 18 -22 52 -50 52 -17 0 -35 -16 -63 -54z"/>
<path d="M700 2669 c-39 -16 -99 -79 -121 -128 -23 -53 -24 -74 -4 -91 13 -11
20 -10 41 1 28 14 140 141 156 176 22 46 -12 66 -72 42z"/>
<path d="M2250 2530 c-9 -16 -1 -29 48 -82 78 -85 109 -127 162 -223 33 -58
51 -80 65 -80 18 0 20 8 23 64 3 73 -12 115 -74 197 -46 61 -84 94 -141 123
-52 26 -69 26 -83 1z"/>
<path d="M728 2410 c-97 -28 -223 -193 -164 -216 39 -15 226 137 226 184 0 27
-27 41 -62 32z"/>
<path d="M679 2148 c-99 -103 -104 -248 -5 -173 30 23 104 130 122 178 8 23
-13 47 -43 47 -16 0 -41 -17 -74 -52z"/>
</g>
</svg>
